 http://img851.imageshack.us/img851/5562/skateland2010.jpg

Country.......: USA
Genre.........: Drama
Date release..: 13.05.2010 [World]
Director......: Anthony Burns
Writers.......: Anthony Burns, Heath Freeman
Duration......: 98 min.
More..........: http://www.imdb.com/title/tt1312254
Trailer.......: http://www.imdb.com/video/imdb/vi837131033
Trailer.......:

Pilot :
In the early 1980s, in small-town Texas, dramatic events force a 19-year-old skating rink manager to look at his life in a very new way. 

Cats :
Ashley Greene   	 ...  	Michelle Burkham
Shiloh Fernandez 	... 	Ritchie Wheeler
D.W. Moffett 	... 	Jimmy Houston
Brett Cullen 	... 	David Wheeler
A.J. Buckley 	... 	Teddy
Haley Ramm 	... 	Mary Wheeler
James LeGros 	... 	Clive Burkham
Taylor Handley 	... 	Kenny Crawford
Melinda McGraw 	... 	Debbie Wheeler
Casey LaBow 	... 	Candy Boyce
Ellen Hollman 	... 	Deana Trammel
Krystal Mayo 	... 	Skating Rink Patron
Heath Freeman 	... 	Brent Burkham
David Sullivan 	... 	Luther
James Hébert 	... 	Tommy Dillday 

Data Technical :
!!! SAMPLE !!!
Audio.....: English
Subtitles.: English .sub
Format                           : AVI
Format/Info                      : Audio Video Interleave
File size                        : 700 MiB
Duration                         : 1h 38mn
Overall bit rate                 : 995 Kbps
Writing application              : Nandub v1.0rc2
Writing library                  : Nandub build 1853/release
Video
ID                               : 0
Format                           : MPEG-4 Visual
Format profile                   : Advanced Simple@L5
Format settings, BVOP            : Yes
Format settings, QPel            : No
Format settings, GMC             : No warppoints
Format settings, Matrix          : Default (H.263)
Muxing mode                      : Packed bitstream
Codec ID                         : XVID
Codec ID/Hint                    : XviD
Duration                         : 1h 38mn
Bit rate                         : 854 Kbps
Width                            : 640 pixels
Height                           : 272 pixels
Display aspect ratio             : 2.35:1
Frame rate                       : 23.976 fps
Color space                      : YUV
Chroma subsampling               : 4:2:0
Bit depth                        : 8 bits
Scan type                        : Progressive
Bits/(Pixel*Frame)               : 0.205
Stream size                      : 600 MiB (86%)
Writing library                  : XviD 57
Audio
ID                               : 1
Format                           : MPEG Audio
Format version                   : Version 1
Format profile                   : Layer 3
Mode                             : Joint stereo
Mode extension                   : MS Stereo
Codec ID                         : 55
Codec ID/Hint                    : MP3
Duration                         : 1h 38mn
Bit rate mode                    : Variable
Bit rate                         : 128 Kbps
Channel(s)                       : 2 channels
Sampling rate                    : 48.0 KHz
Stream size                      : 90.4 MiB (13%)
Alignment                        : Aligned on interleaves
Interleave, duration             : 24 ms (0.58 video frame)
Interleave, preload duration     : 137 ms
Writing library                  : LAME3.90.
Encoding settings                : -m j -V 4 -q 2 -lowpass 17.6 --abr 128

Screen : 
http://img805.imageshack.us/img805/8391/skateland2010s1.jpg 
http://img560.imageshack.us/img560/6686/skateland2010s2.jpg 
http://img16.imageshack.us/img16/9094/skateland2010s3.jpg 
http://img844.imageshack.us/img844/7410/skateland2010s4.jpg 
http://img88.imageshack.us/img88/2717/skateland2010s5.jpg